<?xml version="1.0" standalone="no"?>
<!DOCTYPE svg PUBLIC "-//W3C//DTD SVG 20010904//EN"
 "http://www.w3.org/TR/2001/REC-SVG-20010904/DTD/svg10.dtd">
<svg version="1.0" xmlns="http://www.w3.org/2000/svg"
 width="512.000000pt" height="512.000000pt" viewBox="0 0 512.000000 512.000000"
 preserveAspectRatio="xMidYMid meet">

<g transform="translate(0.000000,512.000000) scale(0.100000,-0.100000)"
fill="#000000" stroke="none">
<path d="M2505 4895 c-25 -24 -25 -24 -25 -234 0 -206 0 -210 23 -237 33 -37
81 -37 114 0 23 27 23 31 23 237 0 210 0 210 -25 234 -15 16 -36 25 -55 25
-19 0 -40 -9 -55 -25z"/>
<path d="M1249 4690 c-9 -5 -22 -22 -28 -38 -11 -25 -5 -49 55 -218 37 -104
76 -199 87 -211 38 -43 117 -23 131 33 8 32 -115 387 -147 422 -22 23 -69 29
-98 12z"/>
<path d="M3773 4678 c-32 -35 -155 -390 -147 -422 14 -56 93 -76 131 -33 11
12 50 107 87 211 60 170 66 192 55 218 -21 52 -89 66 -126 26z"/>
<path d="M114 4036 c-34 -15 -44 -33 -44 -75 0 -35 258 -346 295 -355 29 -7
80 15 89 39 19 51 7 72 -129 234 -75 89 -140 161 -145 161 -4 0 -14 2 -22 5
-7 2 -27 -2 -44 -9z"/>
<path d="M4947 4043 c-9 -2 -78 -76 -152 -164 -136 -162 -148 -183 -129 -234
9 -24 60 -46 89 -39 16 4 73 64 160 167 114 135 135 166 135 194 0 31 -28 73
-49 73 -5 0 -15 2 -23 4 -7 2 -21 2 -31 -1z"/>
<path d="M2325 3953 c-616 -74 -1208 -355 -1820 -864 -141 -117 -492 -470
-501 -503 -3 -14 -4 -36 0 -49 7 -31 258 -291 407 -422 582 -513 1153 -814
1757 -926 139 -26 493 -37 643 -19 633 73 1287 399 1907 952 148 132 391 385
398 415 4 13 3 34 0 47 -8 32 -270 302 -431 443 -594 522 -1224 838 -1829 918
-106 14 -442 19 -531 8z m540 -172 c641 -95 1353 -496 1950 -1101 l120 -121
-160 -157 c-618 -606 -1303 -983 -1938 -1067 -135 -17 -393 -20 -517 -5 -663
80 -1392 483 -2020 1114 l-115 116 115 116 c613 618 1328 1018 1980 1109 149
20 431 18 585 -4z"/>
<path d="M2753 3558 l-23 -24 0 -378 0 -377 25 -24 24 -25 374 0 c364 0 375 1
401 21 23 18 26 27 26 87 0 88 -32 219 -75 307 -122 249 -369 418 -634 432
-92 5 -97 4 -118 -19z m242 -165 c92 -28 168 -76 245 -153 84 -84 140 -182
164 -287 l14 -63 -264 0 -264 0 0 265 0 265 28 -6 c15 -3 50 -13 77 -21z"/>
<path d="M2365 3265 c-370 -68 -636 -389 -635 -767 1 -196 72 -373 210 -521
158 -171 381 -259 613 -244 116 8 190 28 293 78 242 118 407 364 430 639 6 66
4 78 -14 100 l-20 25 -329 5 -328 5 -5 328 -5 329 -24 19 c-27 22 -81 24 -186
4z m57 -475 c3 -317 3 -320 26 -342 22 -23 25 -23 342 -26 267 -2 320 -5 320
-17 0 -38 -54 -177 -90 -231 -124 -189 -332 -295 -554 -281 -385 24 -651 389
-556 761 51 200 202 364 399 432 36 12 76 23 88 23 l22 1 3 -320z"/>
<path d="M352 1507 c-13 -6 -82 -82 -153 -167 -132 -158 -145 -182 -119 -230
12 -22 61 -40 90 -33 12 3 82 77 156 165 104 123 134 166 134 188 0 42 -9 59
-41 75 -34 18 -38 18 -67 2z"/>
<path d="M4705 1509 c-32 -18 -45 -40 -45 -75 0 -28 22 -59 134 -192 74 -88
144 -162 156 -165 29 -7 78 11 90 33 26 48 13 72 -111 221 -66 79 -128 152
-137 161 -23 23 -63 30 -87 17z"/>
<path d="M1363 898 c-11 -13 -50 -108 -87 -212 -60 -170 -66 -192 -55 -218 21
-52 89 -66 126 -25 32 34 155 389 147 421 -14 56 -93 76 -131 34z"/>
<path d="M3653 905 c-41 -29 -38 -56 33 -254 36 -102 75 -196 87 -208 37 -41
105 -27 126 25 11 26 5 48 -55 218 -37 104 -76 199 -87 212 -24 26 -72 29
-104 7z"/>
<path d="M2534 720 c-50 -20 -54 -39 -54 -263 0 -207 0 -208 25 -232 32 -33
78 -33 110 0 25 24 25 24 25 234 0 204 -1 211 -22 235 -27 29 -55 38 -84 26z"/>
</g>
</svg>
