<?xml version="1.0" standalone="no"?>
<!DOCTYPE svg PUBLIC "-//W3C//DTD SVG 20010904//EN"
 "http://www.w3.org/TR/2001/REC-SVG-20010904/DTD/svg10.dtd">
<svg version="1.0" xmlns="http://www.w3.org/2000/svg"
 width="512.000000pt" height="512.000000pt" viewBox="0 0 512.000000 512.000000"
 preserveAspectRatio="xMidYMid meet">

<g transform="translate(0.000000,512.000000) scale(0.100000,-0.100000)"
fill="#000000" stroke="none">
<path d="M2560 4696 c0 -58 3 -106 8 -106 4 0 68 -5 142 -10 949 -72 1708
-780 1856 -1730 22 -144 22 -440 -1 -580 -36 -227 -92 -405 -190 -605 -316
-644 -947 -1070 -1665 -1125 -74 -5 -138 -10 -142 -10 -5 0 -8 -48 -8 -106 l0
-107 118 7 c721 43 1353 406 1754 1008 123 184 237 440 293 654 54 207 69 331
69 574 0 185 -4 247 -22 350 -86 500 -304 918 -659 1261 -393 379 -884 593
-1435 625 l-118 7 0 -107z"/>
<path d="M1885 4696 c-55 -18 -130 -45 -166 -60 l-67 -27 41 -95 c23 -52 46
-94 51 -94 5 0 43 13 85 30 42 16 109 39 149 51 39 11 72 23 72 26 0 5 -18 76
-41 166 -5 20 -13 37 -17 36 -4 0 -52 -15 -107 -33z"/>
<path d="M939 4103 c-52 -54 -126 -141 -166 -193 -81 -109 -187 -279 -179
-288 3 -3 45 -27 93 -53 l87 -47 56 92 c75 123 163 237 267 346 l86 91 -69 72
c-38 39 -72 73 -75 75 -3 1 -48 -42 -100 -95z"/>
<path d="M2022 3619 c-181 -27 -369 -138 -478 -282 -100 -131 -154 -293 -154
-457 0 -164 55 -326 153 -455 25 -33 259 -273 519 -532 l474 -473 49 0 50 0
501 502 c543 545 552 556 611 723 26 74 28 91 28 235 0 144 -2 161 -28 235
-41 116 -100 209 -187 295 -89 87 -160 132 -270 171 -211 75 -431 55 -628 -58
-74 -43 -78 -44 -102 -28 -67 42 -169 88 -234 105 -90 23 -223 31 -304 19z
m274 -234 c82 -27 124 -52 199 -114 41 -34 57 -41 92 -41 35 0 50 7 95 46 268
231 679 153 830 -157 78 -161 78 -316 0 -479 -34 -71 -59 -99 -476 -517 -242
-244 -445 -443 -451 -443 -20 0 -862 853 -898 911 -61 95 -81 169 -81 289 0
84 5 118 23 169 57 163 195 296 354 342 95 27 221 25 313 -6z"/>
<path d="M346 2896 c-12 -66 -25 -235 -26 -331 0 -105 16 -305 28 -346 l7 -25
100 16 c96 14 100 16 99 40 -1 14 -7 90 -13 170 -12 139 -5 337 15 437 8 39
11 37 -113 56 l-91 14 -6 -31z"/>
<path d="M687 1551 c-48 -26 -90 -50 -93 -53 -8 -9 98 -179 179 -288 72 -95
255 -293 266 -288 3 2 37 36 75 75 l69 73 -79 82 c-103 108 -201 234 -273 352
l-57 94 -87 -47z"/>
<path d="M1693 606 l-41 -95 101 -40 c110 -42 239 -83 245 -76 10 10 52 200
45 202 -133 47 -273 95 -288 99 -17 5 -26 -8 -62 -90z"/>
</g>
</svg>
